<svg width="202" height="70" viewBox="0 0 202 70" fill="none" xmlns="http://www.w3.org/2000/svg">
<path d="M31.001 30.2139L40.0186 15.791L42.1406 32.6406L55.9766 30.4785L48.2852 42.2559L68.708 50.6807L73.2168 52.5332L74.543 53.1064L73.3496 53.1504L69.3271 53.1943L45.8096 53.415L49.6113 70L36.1729 59.5459L28.3926 67.0889L25.0332 57.1201L0.542969 70L18.8887 47.5049L8.32324 39.3008L21.3193 36.3896L8.32324 0L31.001 30.2139ZM106.902 19C108.331 19 109.643 19.2557 110.838 19.7676C112.032 20.2582 113.057 20.9517 113.91 21.8477C114.785 22.7223 115.436 23.7575 115.862 24.9521L112.278 26.5518C111.809 25.3572 111.105 24.4398 110.166 23.7998C109.227 23.1386 108.14 22.8077 106.902 22.8076C106.177 22.8076 105.537 22.9364 104.982 23.1924C104.428 23.427 103.99 23.7678 103.67 24.2158C103.371 24.6425 103.222 25.1546 103.222 25.752C103.222 26.4133 103.436 26.9997 103.862 27.5117C104.289 28.0024 104.94 28.3867 105.814 28.6641L110.198 30.04C112.097 30.6587 113.515 31.5117 114.454 32.5996C115.414 33.6876 115.894 35.0319 115.895 36.6318C115.895 37.9972 115.542 39.2027 114.838 40.248C114.134 41.2933 113.163 42.1146 111.926 42.7119C110.689 43.3091 109.249 43.6084 107.606 43.6084C106.092 43.6084 104.683 43.331 103.382 42.7764C102.102 42.2217 100.992 41.453 100.054 40.4717C99.1366 39.4692 98.4647 38.3067 98.0381 36.9844L101.654 35.416C102.23 36.7813 103.062 37.8591 104.15 38.6484C105.238 39.4162 106.465 39.7998 107.83 39.7998C108.598 39.7998 109.26 39.6829 109.814 39.4482C110.39 39.1923 110.827 38.8504 111.126 38.4238C111.446 37.9972 111.606 37.485 111.606 36.8877C111.606 36.1838 111.392 35.6081 110.966 35.1602C110.561 34.6909 109.942 34.3283 109.11 34.0723L104.534 32.5996C102.678 32.0236 101.28 31.1598 100.342 30.0078C99.4033 28.856 98.9346 27.5014 98.9346 25.9443C98.9346 24.5791 99.2645 23.3734 99.9258 22.3281C100.608 21.2828 101.548 20.4725 102.742 19.8965C103.958 19.2992 105.345 19 106.902 19ZM88.2002 19.3828C89.8213 19.3829 91.2501 19.6821 92.4873 20.2793C93.746 20.8553 94.7276 21.7082 95.4316 22.8389C96.1356 23.9481 96.4872 25.3026 96.4873 26.9023C96.4873 28.481 96.1247 29.8361 95.3994 30.9668C94.6954 32.0761 93.7246 32.9291 92.4873 33.5264C91.2501 34.1236 89.8213 34.4228 88.2002 34.4229H83.6553V43.2227H79.3037V19.3828H88.2002ZM123.204 29.7832H133.349V19.3828H137.732V43.2227H133.349V33.623H123.204V43.2227H118.853V19.3828H123.204V29.7832ZM145.713 29.9824L154.673 19.3828H160.146L151.876 29.1816L160.434 43.2227H155.313L148.913 32.7266L145.713 36.5352V43.2227H141.361V19.3828H145.713V29.9824ZM170.984 19.3828C172.606 19.3828 174.035 19.682 175.272 20.2793C176.531 20.8553 177.512 21.7084 178.216 22.8389C178.92 23.9481 179.272 25.3025 179.272 26.9023C179.272 28.545 178.877 29.9427 178.088 31.0947C177.32 32.2467 176.275 33.1006 174.952 33.6553L180.424 43.2227H175.496L170.571 34.4229H166.472V43.2227H162.12V19.3828H170.984ZM190.852 37.7236L196.916 19.3828H201.651L193.363 43.2227H188.372L180.052 19.3828H184.788L190.852 37.7236ZM83.6553 30.583H88.2637C89.0529 30.583 89.7356 30.4334 90.3115 30.1348C90.8873 29.8149 91.3353 29.3777 91.6553 28.8232C91.9753 28.2686 92.1357 27.6277 92.1357 26.9023C92.1357 26.1559 91.9752 25.5156 91.6553 24.9824C91.3353 24.428 90.8874 24.0017 90.3115 23.7031C89.7355 23.3831 89.053 23.2227 88.2637 23.2227H83.6553V30.583ZM166.472 30.583H171.048C171.837 30.583 172.52 30.4333 173.096 30.1348C173.672 29.8148 174.12 29.3778 174.44 28.8232C174.76 28.2686 174.92 27.6277 174.92 26.9023C174.92 26.1559 174.76 25.5156 174.44 24.9824C174.12 24.4278 173.672 24.0018 173.096 23.7031C172.52 23.3832 171.837 23.2227 171.048 23.2227H166.472V30.583Z" fill="#231F20"/>
</svg>
